#!OML:ASF F:\VICON\USERDATA\INSTALL\rory3\rory3.ASF
:FULLY-SPECIFIED
:DEGREES
353
root 0.479034 17.822 23.9292 -0.14049 -5.86409 -8.02782
lowerback 7.1254 3.0828 6.81098
upperback 1.19251 4.66095 1.67493
thorax -2.34959 2.27226 -2.4769
lowerneck -15.4381 -3.07958 -1.02963
upperneck 16.2129 -4.09059 0.638804
head 7.56885 -1.95326 -0.0696264
rclavicle -1.36292e-014 9.74045e-015
rhumerus -23.2753 -14.2164 -81.1831
rradius 30.8495
rwrist 2.15919
rhand -16.4708 20.611
rfingers 7.12502
rthumb 9.74599 -9.14346
lclavicle -1.36292e-014 9.74045e-015
lhumerus -38.7765 3.87164 81.5551
lradius 27.0796
lwrist -1.93802
lhand -20.4463 31.761
lfingers 7.12502
lthumb 5.90891 61.6586
rfemur 10.5412 7.95115 34.7898
rtibia 26.9845
rfoot -17.3072 2.57236
rtoes 3.4957
lfemur -30.2936 -4.18918 -8.93203
ltibia 21.4786
lfoot -11.7449 9.57069
ltoes -8.17371
354
root 0.495923 17.8149 24.1206 -0.118503 -5.90662 -8.01305
lowerback 6.98867 3.13603 6.80532
upperback 1.14841 4.72212 1.67906
thorax -2.31453 2.30316 -2.46649
lowerneck -15.3901 -3.09758 -1.09931
upperneck 16.2321 -4.0975 0.628188
head 7.56812 -1.96206 -0.061947
rclavicle -2.14936e-014 1.98785e-016
rhumerus -23.4664 -14.4294 -81.0883
rradius 30.7396
rwrist 2.23449
rhand -16.432 20.2836
rfingers 7.12502
rthumb 9.78341 -9.46916
lclavicle -2.14936e-014 1.98785e-016
lhumerus -38.8722 4.21828 81.2973
lradius 27.3278
lwrist -3.64159
lhand -15.9927 37.7826
lfingers 7.12502
lthumb 10.2072 67.5149
rfemur 10.9762 7.94233 34.6913
rtibia 27.3018
rfoot -17.3256 2.83808
rtoes 0.822733
lfemur -30.1213 -4.22944 -9.06601
ltibia 22.0159
lfoot -12.2484 8.73536
ltoes -6.83689
355
root 0.523184 17.8106 24.3334 -0.16825 -5.87025 -7.57499
lowerback 6.52774 3.16029 6.50519
upperback 1.27677 4.68397 1.55218
thorax -1.94087 2.30168 -2.39293
lowerneck -15.5282 -3.06111 -1.12589
upperneck 16.2148 -4.05011 0.683425
head 7.58797 -1.93509 -0.0364055
rclavicle 4.6615e-014 2.48481e-014
rhumerus -23.6079 -14.6438 -81.0272
rradius 30.6685
rwrist 2.30839
rhand -16.2897 20.0286
rfingers 7.12502
rthumb 9.92068 -9.71763
lclavicle 4.6615e-014 2.48481e-014
lhumerus -38.9963 4.01289 81.5461
lradius 26.727
lwrist -1.63046
lhand -20.3772 32.3411
lfingers 7.12502
lthumb 5.9757 62.2368
rfemur 11.5264 7.70533 34.0067
rtibia 27.647
rfoot -17.1636 2.93208
rtoes -1.96001
lfemur -29.7821 -4.58889 -9.66268
ltibia 22.5219
lfoot -12.0875 8.01371
ltoes -7.42766
356
root 0.550878 17.8038 24.5457 -0.299565 -5.86988 -7.37457
lowerback 6.21384 3.18228 6.46674
upperback 1.42465 4.67484 1.45138
thorax -1.60775 2.31135 -2.44735
lowerneck -15.9137 -3.03189 -0.938293
upperneck 16.4721 -4.04142 0.612421
head 7.73459 -1.9225 -0.0979218
rclavicle -3.3197e-014 -4.96962e-015
rhumerus -23.8274 -14.8958 -81.0271
rradius 30.6119
rwrist 2.48618
rhand -16.4938 20.3781
rfingers 7.12502
rthumb 9.7238 -9.37739
lclavicle -3.3197e-014 -4.96962e-015
lhumerus -39.0648 3.9931 81.5422
lradius 25.9954
lwrist -1.08435
lhand -22.8357 30.3112
lfingers 7.12502
lthumb 3.60176 60.2605
rfemur 12.1065 7.48134 33.6065
rtibia 28.0291
rfoot -16.3467 2.7325
rtoes -3.88157
lfemur -29.3189 -5.06682 -9.94731
ltibia 23.0137
lfoot -11.6333 7.18089
ltoes -7.42323
357
root 0.576712 17.7966 24.7551 -0.43235 -5.94015 -7.2815
lowerback 5.99195 3.22374 6.53335
upperback 1.46571 4.71211 1.36592
thorax -1.42546 2.33675 -2.55687
lowerneck -15.8272 -3.08172 -0.881552
upperneck 16.5596 -4.13836 0.676808
head 7.74941 -1.95863 -0.0963652
rclavicle -3.61291e-014 -1.03368e-014
rhumerus -24.1595 -15.0994 -81.018
rradius 30.4782
rwrist 2.46869
rhand -16.7493 20.7912
rfingers 7.12502
rthumb 9.47726 -8.97565
lclavicle -3.61291e-014 -1.03368e-014
lhumerus -39.2767 4.05375 81.4007
lradius 25.466
lwrist -1.39567
lhand -18.8761 34.2883
lfingers 7.12502
lthumb 7.42473 64.138
rfemur 12.624 7.3973 33.3629
rtibia 28.4527
rfoot -15.2076 2.78683
rtoes -4.22836
lfemur -28.8583 -5.14516 -10.2555
ltibia 23.543
lfoot -11.4926 6.02532
ltoes -7.4505
358
root 0.597634 17.7969 24.9596 -0.482909 -6.01424 -7.08016
lowerback 5.84418 3.26083 6.37986
upperback 1.41162 4.74194 1.29501
thorax -1.40304 2.35187 -2.53895
lowerneck -15.4112 -3.08157 -0.795057
upperneck 16.325 -4.14312 0.598141
head 7.59537 -1.96716 -0.127488
rclavicle -3.08116e-015 -7.95139e-015
rhumerus -24.5235 -15.1689 -80.97
rradius 30.3887
rwrist 2.23933
rhand -16.4849 20.7954
rfingers 7.12502
rthumb 9.73234 -8.95974
lclavicle -3.08116e-015 -7.95139e-015
lhumerus -39.5694 4.3034 81.1339
lradius 25.24
lwrist -2.26444
lhand -23.8228 25.6742
lfingers 7.12502
lthumb 2.64849 55.6375
rfemur 12.9625 7.32905 33.0045
rtibia 28.9642
rfoot -14.1986 3.15156
rtoes -4.68805
lfemur -28.5479 -5.01919 -10.7772
ltibia 24.1335
lfoot -10.997 4.82957
ltoes -8.41277
359
root 0.617623 17.8074 25.1628 -0.541555 -6.04227 -6.92951
lowerback 5.81297 3.25499 6.1686
upperback 1.33445 4.72385 1.32027
thorax -1.48671 2.33931 -2.39707
lowerneck -15.4445 -3.03611 -0.757188
upperneck 16.5493 -4.05104 0.381785
head 7.6688 -1.9404 -0.197214
rclavicle -1.53437e-014 -7.7526e-015
rhumerus -24.896 -15.3281 -80.8087
rradius 30.1572
rwrist 2.55761
rhand -16.6414 20.8088
rfingers 7.12502
rthumb 9.58137 -8.95333
lclavicle -1.53437e-014 -7.7526e-015
lhumerus -39.9668 4.46523 81.0637
lradius 25.2808
lwrist -2.30358
lhand -23.0659 21.025
lfingers 7.12502
lthumb 3.37948 50.978
rfemur 13.1544 7.0005 32.5941
rtibia 29.5823
rfoot -13.0629 3.68909
rtoes -5.07632
lfemur -28.3028 -4.7728 -11.2693
ltibia 24.7615
lfoot -9.6431 3.51821
ltoes -9.82178
360
root 0.643722 17.8241 25.3763 -0.576693 -5.98475 -6.5617
lowerback 5.59326 3.25866 5.8477
upperback 1.23436 4.69732 1.24703
thorax -1.48996 2.32545 -2.28342
lowerneck -15.4467 -3.02175 -0.789756
upperneck 16.8386 -4.00859 0.28496
head 7.76316 -1.9301 -0.222063
rclavicle -7.18855e-014 -1.98785e-014
rhumerus -25.339 -15.7437 -80.5635
rradius 29.7441
rwrist 3.04134
rhand -16.684 21.2228
rfingers 7.12502
rthumb 9.54021 -8.54121
lclavicle -7.18855e-014 -1.98785e-014
lhumerus -40.1967 5.00476 80.7309
lradius 25.211
lwrist -2.47747
lhand -24.2191 23.6245
lfingers 7.12502
lthumb 2.26573 53.5922
rfemur 13.1469 6.61146 31.8855
rtibia 30.3858
rfoot -11.7397 4.24221
rtoes -4.91053
lfemur -28.0582 -4.65352 -11.9585
ltibia 25.3678
lfoot -8.40655 2.26541
ltoes -11.1792
361
root 0.664169 17.8378 25.5895 -0.763278 -6.03881 -6.09233
lowerback 5.65025 3.28756 5.43158
upperback 1.13036 4.71798 1.10822
thorax -1.6497 2.33115 -2.2061
lowerneck -15.2685 -2.99846 -1.00034
upperneck 16.9563 -3.9768 0.521791
head 7.7805 -1.90547 -0.104626
rclavicle 4.48011e-014 4.57205e-015
rhumerus -25.9097 -15.9666 -80.429
rradius 29.5759
rwrist 3.09723
rhand -16.6253 21.2294
rfingers 7.12502
rthumb 9.59684 -8.53198
lclavicle 4.48011e-014 4.57205e-015
lhumerus -40.2727 5.15886 80.5332
lradius 24.9331
lwrist -2.59658
lhand -23.6794 25.6133
lfingers 7.12502
lthumb 2.78694 55.5748
rfemur 13.1379 6.63558 31.2759
rtibia 31.4042
rfoot -10.0202 4.46776
rtoes -4.13891
lfemur -27.6514 -4.73195 -12.6232
ltibia 25.9264
lfoot -7.39011 1.42065
ltoes -10.4255
362
root 0.678185 17.8497 25.7941 -0.959646 -6.02553 -5.74396
lowerback 5.85153 3.32961 5.0701
upperback 1.02057 4.76788 0.997398
thorax -1.89177 2.34946 -2.14206
lowerneck -15.2709 -3.03141 -1.10639
upperneck 17.2434 -4.03586 0.695149
head 7.88284 -1.92166 -0.0396651
rclavicle -7.64576e-014 1.0138e-014
rhumerus -26.5532 -16.441 -80.2323
rradius 29.5316
rwrist 3.22247
rhand -16.5565 20.7727
rfingers 7.12502
rthumb 9.66324 -8.98569
lclavicle -7.64576e-014 1.0138e-014
lhumerus -40.4867 5.18211 80.3799
lradius 24.9156
lwrist -2.85879
lhand -23.162 26.1773
lfingers 7.12502
lthumb 3.28665 56.1317
rfemur 12.9775 6.60482 30.8285
rtibia 32.6818
rfoot -7.78127 4.65222
rtoes -4.00587
lfemur -27.2373 -4.85422 -13.1246
ltibia 26.3362
lfoot -6.15687 0.724722
ltoes -9.14029
363
root 0.696501 17.8639 25.9954 -0.962966 -5.79019 -5.26062
lowerback 5.72251 3.3035 4.5517
upperback 0.886034 4.6968 0.884983
thorax -1.99618 2.31278 -1.96403
lowerneck -15.1241 -3.06171 -1.03864
upperneck 17.4092 -4.07408 0.577416
head 7.90813 -1.94695 -0.0930073
rclavicle 1.76173e-014 1.11319e-014
rhumerus -27.1546 -16.9605 -79.962
rradius 29.4812
rwrist 3.42143
rhand -16.6131 20.2744
rfingers 7.12502
rthumb 9.60866 -9.48645
lclavicle 1.76173e-014 1.11319e-014
lhumerus -40.7623 5.58424 80.0533
lradius 24.694
lwrist -2.98185
lhand -23.0147 27.9512
lfingers 7.12502
lthumb 3.42889 57.9034
rfemur 12.4508 6.31631 30.1307
rtibia 34.1698
rfoot -5.21314 4.84975
rtoes -4.39815
lfemur -26.995 -4.91559 -13.848
ltibia 26.757
lfoot -5.282 0.237531
ltoes -8.83869
364
root 0.718957 17.8767 26.2007 -1.12134 -5.43583 -4.70253
lowerback 5.72258 3.19066 3.99577
upperback 0.73876 4.51594 0.795771
thorax -2.19576 2.22026 -1.74333
lowerneck -14.7706 -3.10861 -1.07262
upperneck 17.5209 -4.12185 0.506436
head 7.88212 -1.98034 -0.111369
rclavicle 1.31819e-014 4.37326e-015
rhumerus -27.8664 -17.3297 -79.6211
rradius 29.4624
rwrist 3.60448
rhand -16.4319 20.0988
rfingers 7.12502
rthumb 9.78343 -9.65392
lclavicle 1.31819e-014 4.37326e-015
lhumerus -41.1013 6.28085 79.6236
lradius 24.073
lwrist -3.47133
lhand -23.2534 27.7051
lfingers 7.12502
lthumb 3.19837 57.6609
rfemur 11.9309 5.83973 29.2957
rtibia 35.8432
rfoot -2.90204 5.03378
rtoes -3.34365
lfemur -26.5752 -4.97961 -14.7148
ltibia 27.2801
lfoot -4.8805 0.129211
ltoes -10.0683
365
root 0.735974 17.8809 26.3964 -1.42678 -5.20144 -4.44145
lowerback 6.03949 3.10576 3.75423
upperback 0.715848 4.40237 0.746793
thorax -2.41713 2.16049 -1.67389
lowerneck -14.6819 -3.16571 -1.2122
upperneck 17.5426 -4.21158 0.715139
head 7.88244 -2.01205 -0.0285557
rclavicle -3.19298e-015 -1.35174e-014
rhumerus -28.2331 -18.0666 -79.3129
rradius 29.1132
rwrist 4.06815
rhand -16.1812 20.2154
rfingers 7.12502
rthumb 10.0253 -9.52577
lclavicle -3.19298e-015 -1.35174e-014
lhumerus -41.1514 6.53285 79.3895
lradius 23.6443
lwrist -3.75694
lhand -23.5286 26.2066
lfingers 7.12502
lthumb 2.93261 56.1662
rfemur 11.4579 5.46287 28.8657
rtibia 37.6253
rfoot -0.509154 5.03919
rtoes -2.81099
lfemur -25.9905 -4.92864 -15.2238
ltibia 27.9093
lfoot -4.72833 -0.0293922
ltoes -10.9414
366
root 0.754792 17.885 26.5831 -1.54984 -5.0433 -4.31957
lowerback 6.16444 3.06432 3.71081
upperback 0.735352 4.34771 0.681367
thorax -2.46779 2.13258 -1.72026
lowerneck -14.7926 -3.17624 -1.37863
upperneck 17.5986 -4.25431 1.04759
head 7.93285 -2.00942 0.101006
rclavicle -6.64686e-015 -1.98785e-016
rhumerus -28.481 -18.8252 -79.0849
rradius 28.6417
rwrist 4.42989
rhand -16.1084 20.1962
rfingers 7.12502
rthumb 10.0956 -9.54158
lclavicle -6.64686e-015 -1.98785e-016
lhumerus -41.0395 6.74452 79.1177
lradius 23.0525
lwrist -4.43905
lhand -23.9525 25.3474
lfingers 7.12502
lthumb 2.52324 55.3122
rfemur 10.6564 5.15474 28.5586
rtibia 39.5037
rfoot 1.78427 5.10695
rtoes -2.07486
lfemur -25.5815 -4.61629 -15.6327
ltibia 28.5814
lfoot -5.05177 -0.415158
ltoes -10.4447
